
****** An.American.Crime.2007.x264.AC3(5.1).Multisub.mkv-Zen_Bud *****

Format                           : Matroska
File size                        : 1.16 GiB
Duration                         : 1h 33mn
Overall bit rate                 : 1 775 Kbps
Writing application              : HandBrake svn3506
Writing library                  : libmkv 0.6.4.1

Video

Format                           : AVC
Duration                         : 1h 33mn
Bit rate                         : 1 292 Kbps
Width                            : 720 pixels
Height                           : 576 pixels
Display aspect ratio             : 16:9
Stream size                      : 865 MiB (73%)
Writing library                  : x264 core 104


Audio

Format                           : AC-3
Duration                         : 1h 33mn
Bit rate                         : 448 Kbps
Channel(s)                       : 6 channels
Channel positions                : Front: L C R, Side: L R, LFE
Sampling rate                    : 48.0 KHz
Bit depth                        : 16 bits
Stream size                      : 300 MiB (25%)
Language                         : English

Text #1
Language                         : Swedish

Text #2
Language                         : Finnish

Text #3
Language                         : Norwegian

Text #4
Language                         : Icelandic

Menu
00:00:00.000                     : Chapter  1
00:04:14.440                     : Chapter  2


